<svg viewBox="0 0 1080 1080" xmlns="http://www.w3.org/2000/svg" xmlns:xlink="http://www.w3.org/1999/xlink"><clipPath id="a"><path d="m814 339.65c7.82 31.52 54.32 115.3 82.76 161.43s53.56 104 52 177.13-29.14 93.1-67.36 104.2-61.78 8-84 10.94-45.43 12.47-60.47 0-22.89-19.82-39.63-11.11-59.27 6.32-70.37 3.42-16.57-25.11 2-36.56c-30.41 9.74-108 .82-126.58-74.3-14.86-60.22 30-184.72 40-213.18 10.23-29.2 14.86-45.36 9.22-71.75 37.19-10.5 262.43-50.22 262.43-50.22z"/></clipPath><clipPath id="b"><ellipse cx="557.93" cy="455.54" rx="27.84" ry="26.06"/></clipPath><path d="m648.18 343.24c-76.11-2.08-197.7 57.69-261.74 137.52-98.16 122.35-192.53 62.38-283.85 145.24-69.07 62.69-90.73 198.06 12 268.27s280.21-5.13 385.11 37.41 198.84 77.45 305.54 61.38c122.51-18.41 230.64-129.06 210.66-326.8-25.55-252.97-205.27-318.59-367.72-323.02z" fill="#e1ecff"/><path d="m940.56 710.67s63.89 28.2 67.64 83c3.33 48.68-22.29 98.65-67.64 122-51.81 26.62-74.31-17.67-57.91-45.67s107.62-71 45.61-126.06c0-23.53 12.3-33.27 12.3-33.27z" fill="#f774b9"/><path d="m290.82 704.11c-22.65-2.38-64.38-1.39-86.9 4.46-20.52 5.33-40 29-9 40s5.21 24.49-36 26.46-59.69 29.14-30.69 44.21 88.12 16 137.11 16 112.34-7.61 139.09-23.65 6.19-31.26-3.1-35.48-18.3-5.21-15.77-11.82 14-25.87-2.91-40.74c-28.65-25.14-67.56-16.88-91.83-19.44z" fill="#99adf9" opacity=".58"/><path d="m511.9 675s-1.94 42.4-5.44 47.45-35 13.81-36.74 23.73-1.55 27.23 14.39 30.34 50 2.34 58.73 2 26.83-24.9 34.8-80.91c-47.45-21.67-65.74-22.61-65.74-22.61z" fill="#f774b9"/><path d="m594.65 144.41s-23.83-45.36-40.48-55.86-27.68-5.38-31.77 5.64-5.13 55.34-5.13 55.34-46.12 42.79-63.54 90.19-21.27 143.49 88.65 156.28 223.18-23.55 271.62-56.35c-15.9-80.2-38.45-184.74-43.58-213.65s-21-43.25-38.43-43.15-38.99 40.55-45.61 65.15c-45.86-5.39-91.73-3.59-91.73-3.59z" fill="#ff97c9"/><path d="m698.63 150.47s15.17-48.94 28.37-48.68c11.82.23 17.29 37 18.28 55.11a4.19 4.19 0 0 1 -5.07 4.32c-16.12-3.44-41.58-10.75-41.58-10.75z" fill="#fff" opacity=".3"/><path d="m517 149.7s-1.24-51.61 9.74-55.47c11.15-3.93 29 28.71 36.22 45.38a4.2 4.2 0 0 1 -3.27 5.81c-16.3 2.34-42.69 4.28-42.69 4.28z" fill="#fff" opacity=".3"/><path d="m814 339.65c7.82 31.52 54.32 115.3 82.76 161.43s53.56 104 52 177.13-29.14 93.1-67.36 104.2-61.78 8-84 10.94-45.43 12.47-60.47 0-22.89-19.82-39.63-11.11-59.27 6.32-70.37 3.42-16.57-25.11 2-36.56c-30.41 9.74-108 .82-126.58-74.3-14.86-60.22 30-184.72 40-213.18 10.23-29.2 14.86-45.36 9.22-71.75 37.19-10.5 262.43-50.22 262.43-50.22z" fill="#ff97c9"/><g clip-path="url(#a)"><path d="m845.75 411.32s-40.1 43.68-31.75 88.22c5.8 31.06 44.07 48.17 48.17 74.82s33.32 71 82.51 48.08c-6.17-76.27-98.93-211.12-98.93-211.12z" fill="#f774b9"/><path d="m912.89 525.74s32.84 200.26-91.2 265.89c86.34 52.35 203.94-106 203.94-106z" fill="#ff97c9" opacity=".19"/><path d="m730.8 699.57s2 42.87 39.28 49.88c-4.78 9.73-38.77 3.24-40.31 37.23-6.32-3.86-14.18-13.15-32.46-4.44 24.77-41.68 33.49-82.67 33.49-82.67z" fill="#f774b9"/><path d="m540 435.93s12.76-11.34 50-6 84.59 112.49 78.53 176.51 1.88 137.94-57.35 151.85c-59.06 22.93-186.18-64.29-186.18-64.29z" fill="#fff" opacity=".3"/></g><g fill="#f774b9"><path d="m667.2 536.91c.06 37.11-3.31 74.08-6.92 111-1.79 18.36-3.42 36.78-6.7 55-2.42 13.38-5.35 37.37-22.59 39.59-5.66.73-5.74 9.74 0 9 17.28-2.23 25-17.79 28.6-33.15 4.51-19.24 6.59-39 8.54-58.65 4-40.79 8.13-81.67 8.07-122.72 0-5.79-9-5.8-9 0z"/><path d="m743.72 609c-2.81 29.27-9.08 58.07-17.1 86.33-4 13.91-8.33 27.7-12.94 41.4q-3.45 10.27-7.06 20.5c-2.33 6.62-4.58 13.38-9.4 18.66-3.9 4.27 2.45 10.65 6.36 6.36 9.48-10.38 12.85-25.67 17.27-38.66 5-14.58 9.68-29.25 13.93-44.06 8.5-29.63 15-59.82 17.94-90.53.56-5.76-8.45-5.72-9 0z"/><path d="m789.47 602.6c-14 6.72-27.24 18.39-37.54 29.91s-16.31 25.7-19.69 40.61-6.56 32.31-.73 47c4.92 12.39 14.89 22.34 26.59 28.51 16.07 8.48 34.62 10.06 52.49 9.79 5.78-.08 5.8-9.08 0-9-17.92.27-36.89-1.2-52.38-11.14-14.66-9.41-21.92-24-20.6-41.33s5.32-36 15-50.72c5-7.63 11.83-13.78 18.65-19.75 7.05-6.18 14.24-12 22.73-16.1 5.22-2.51.66-10.27-4.54-7.77z"/><path d="m774.6 747.58c-11.61 4.5-23.7 8.42-35 13.66a22.51 22.51 0 0 0 -13.17 22.48c.51 5.72 9.51 5.77 9 0-.9-10.08 6.08-13.71 14.26-16.88l27.31-10.58c5.35-2.07 3-10.78-2.39-8.68z"/><path d="m631 764.78a35 35 0 0 0 -3.2 17.78c.53 5.72 9.53 5.78 9 0a25.91 25.91 0 0 1 2-13.24c1-2.23.63-4.81-1.61-6.15-1.92-1.15-5.16-.6-6.16 1.61z"/><path d="m660.86 765.32c-3.09 5.93-3.33 12.34-3.13 18.89.17 5.78 9.17 5.8 9 0-.15-4.84-.4-9.92 1.9-14.34 2.67-5.14-5.09-9.69-7.77-4.55z"/></g><path d="m553.15 398.65s139.38 11.72 260.83-59c6.58 19 15.55 39.2 15.55 39.2s-120.82 73.33-278.15 53.76c-5.65-9.32 1.77-33.96 1.77-33.96z" fill="#738de0"/><path d="m493.19 246.21c3.54-3.1 33.56-3.84 36.72-1.87s-.34 23.23-18.36 23.23-21.1-18.96-18.36-21.36z" fill="#1c3177"/><path d="m622.32 246.21c3.55-3.1 33.57-3.84 36.73-1.87s-.34 23.23-18.36 23.23-21.1-18.96-18.37-21.36z" fill="#1c3177"/><path d="m557.93 333s9.39-23.74 15-23.23 18.48 23.23 18.48 23.23" fill="none" stroke="#1c3177" stroke-linecap="round" stroke-miterlimit="10" stroke-width="9"/><path d="m429.13 292.91a325 325 0 0 1 35.86.6c5.78.42 5.76-8.58 0-9a325 325 0 0 0 -35.86-.6c-5.77.22-5.8 9.22 0 9z" fill="#f774b9"/><path d="m433.14 337.34a308.62 308.62 0 0 1 30.5-11.77c5.48-1.79 3.14-10.48-2.39-8.67a332.21 332.21 0 0 0 -32.65 12.66c-5.27 2.37-.7 10.13 4.54 7.78z" fill="#f774b9"/><path d="m678.8 294.67a216.66 216.66 0 0 1 30.93-15.46c5.31-2.13 3-10.83-2.39-8.68a231.14 231.14 0 0 0 -33.08 16.37c-5 3-.44 10.76 4.54 7.77z" fill="#f774b9"/><path d="m682.27 319.83c10.24.61 20.44 1.64 30.59 3.15 5.66.84 8.11-7.83 2.39-8.68-11-1.63-21.94-2.81-33-3.47-5.79-.35-5.77 8.65 0 9z" fill="#f774b9"/><path d="m567.36 146.58a164.79 164.79 0 0 1 24.93-.81c5.79.25 5.78-8.75 0-9a164.79 164.79 0 0 0 -24.93.81c-5.69.62-5.76 9.63 0 9z" fill="#f774b9"/><path d="m690.22 150.16a48 48 0 0 1 17.45 3.61c5.37 2.16 7.7-6.54 2.39-8.68a54.79 54.79 0 0 0 -19.84-3.93c-5.79-.09-5.79 8.91 0 9z" fill="#f774b9"/><ellipse cx="557.93" cy="455.54" fill="#ffd3b3" rx="27.84" ry="26.06"/><g clip-path="url(#b)"><ellipse cx="554.93" cy="453.21" fill="#1c3177" rx="7.07" ry="12.69" transform="matrix(.13381322 -.99100657 .99100657 .13381322 31.52 942.49)"/><path d="m554.93 454.1a59.27 59.27 0 0 0 -3.24 29.9" fill="none" stroke="#1c3177" stroke-miterlimit="10" stroke-width="7"/></g><path d="m183 798.98 64.2 72.57 34.87-15.1-25.22-12.58 7.94-35.48z" fill="#738de0"/><path d="m314.29 809.18 28.53-26.28 15.39 28.9z" fill="#738de0"/><path d="m232.53 649.28 182.36 19.91s20.09 47.31-1.59 81.1l-139 8.66 10.52-29.66-23.27-7.88 18.3-40.7z" fill="#738de0"/></svg>